<svg width="1467" height="495" viewBox="0 0 1467 495" fill="none" xmlns="http://www.w3.org/2000/svg">
<rect width="1467" height="495" fill="white"/>
<path d="M1075.97 279.233V241.184H1080.51V275.153H1098.21V279.233H1075.97Z" fill="#575756"/>
<path d="M1107.06 279.233V241.184H1130.02V245.279H1111.67V258.138H1128.84V262.218H1111.67V275.153H1130.32V279.233H1107.06Z" fill="#575756"/>
<path d="M1141.56 279.233H1136.72L1150.7 241.184H1155.47L1169.44 279.233H1164.61L1153.23 247.213H1152.94L1141.56 279.233ZM1143.34 264.379H1162.83V268.459H1143.34V264.379Z" fill="#575756"/>
<path d="M1177.03 279.233V241.184H1189.83C1192.36 241.083 1194.87 241.602 1197.15 242.695C1198.96 243.598 1200.45 245.046 1201.4 246.835C1202.34 248.709 1202.81 250.783 1202.77 252.879C1202.81 254.951 1202.34 257.001 1201.4 258.848C1200.45 260.612 1198.97 262.038 1197.18 262.928C1194.91 264.003 1192.42 264.521 1189.91 264.439H1179.55V260.208H1189.83C1191.51 260.282 1193.19 259.977 1194.74 259.317C1195.91 258.808 1196.87 257.918 1197.47 256.793C1198.06 255.564 1198.35 254.212 1198.31 252.849C1198.34 251.47 1198.05 250.104 1197.45 248.86C1196.86 247.701 1195.91 246.77 1194.73 246.216C1193.16 245.532 1191.46 245.211 1189.76 245.279H1181.65V279.233H1177.03ZM1194.94 262.142L1204.31 279.233H1198.9L1189.68 262.142H1194.94Z" fill="#575756"/>
<path d="M1242.32 241.184V279.233H1237.79L1217.04 249.328H1216.68V279.202H1212.15V241.184H1216.68L1237.5 271.133H1237.88V241.184H1242.32Z" fill="#575756"/>
<path d="M1100.95 295.794H1105.48V320.984C1105.53 323.425 1104.9 325.831 1103.66 327.935C1102.41 329.985 1100.63 331.654 1098.5 332.755C1096.06 333.909 1093.39 334.508 1090.69 334.508C1087.99 334.508 1085.32 333.909 1082.88 332.755C1080.77 331.642 1079.01 329.962 1077.8 327.904C1076.56 325.801 1075.93 323.395 1075.97 320.953V295.794H1080.51V320.606C1080.47 322.339 1080.9 324.049 1081.75 325.562C1082.57 327.002 1083.78 328.18 1085.24 328.962C1086.95 329.778 1088.81 330.201 1090.71 330.201C1092.6 330.201 1094.46 329.778 1096.17 328.962C1097.64 328.189 1098.85 327.008 1099.66 325.562C1100.5 324.045 1100.92 322.336 1100.89 320.606L1100.95 295.794Z" fill="#575756"/>
<path d="M1146.61 295.794V333.843H1142.15L1121.4 303.969H1121.03V333.843H1116.49V295.794H1120.95L1141.77 325.744H1142.15V295.794H1146.61Z" fill="#575756"/>
<path d="M1157.46 333.843V295.794H1162V329.748H1179.7V333.843H1157.46Z" fill="#575756"/>
<path d="M1193.16 295.794V333.843H1188.62V295.794H1193.16Z" fill="#575756"/>
<path d="M1204.03 295.794H1209.49L1222.43 327.376H1222.86L1235.81 295.794H1241.31V333.843H1236.99V304.936H1236.7L1224.8 333.843H1220.64L1208.74 304.936H1208.37V333.843H1204.06L1204.03 295.794Z" fill="#575756"/>
<path d="M1256.82 295.794V333.843H1252.29V295.794H1256.82Z" fill="#575756"/>
<path d="M1265.61 299.874V295.794H1294.15V299.874H1282.18V333.843H1277.52V299.874H1265.61Z" fill="#575756"/>
<path d="M1302.93 333.843V295.794H1325.9V299.874H1307.54V312.794H1324.72V316.874H1307.54V329.808H1326.2V333.903L1302.93 333.843Z" fill="#575756"/>
<path d="M1347.62 333.843H1335.88V295.794H1348.14C1351.44 295.696 1354.71 296.479 1357.62 298.061C1360.24 299.581 1362.35 301.856 1363.66 304.589C1365.14 307.766 1365.86 311.242 1365.77 314.743C1365.86 318.266 1365.13 321.762 1363.65 324.958C1362.31 327.731 1360.16 330.03 1357.48 331.547C1354.45 333.155 1351.05 333.946 1347.62 333.843ZM1340.49 329.748H1347.32C1350.05 329.852 1352.75 329.226 1355.15 327.935C1357.2 326.738 1358.82 324.924 1359.78 322.752C1360.85 320.22 1361.36 317.49 1361.29 314.743C1361.36 312.016 1360.85 309.305 1359.78 306.795C1358.85 304.653 1357.26 302.86 1355.24 301.672C1352.97 300.407 1350.39 299.785 1347.79 299.874H1340.43L1340.49 329.748Z" fill="#575756"/>
<path d="M218.206 233.855H270.819C286.456 233.855 301.454 227.646 312.511 216.594C323.569 205.542 329.781 190.552 329.781 174.923V100.774H248.791C240.678 100.778 232.899 104.002 227.163 109.737C221.428 115.472 218.206 123.249 218.206 131.358V233.855Z" fill="#3EA3DC"/>
<path d="M193.079 100.774H133.981C129.962 100.774 125.983 101.565 122.271 103.102C118.558 104.639 115.185 106.892 112.343 109.732C109.502 112.572 107.248 115.943 105.71 119.654C104.172 123.365 103.381 127.342 103.381 131.358V305.133C103.381 313.24 106.603 321.015 112.339 326.748C118.075 332.481 125.854 335.702 133.966 335.702H177.81C181.865 335.702 185.754 334.093 188.623 331.228C191.492 328.364 193.106 324.478 193.11 320.425L193.079 100.774Z" fill="#FFCC00"/>
<path d="M280.797 261.523H218.206V320.455C218.21 324.508 219.824 328.394 222.693 331.259C225.562 334.123 229.451 335.732 233.506 335.732H300.27C308.076 335.732 315.564 332.632 321.084 327.115C326.604 321.598 329.705 314.114 329.705 306.311V264.802V235.306C324.344 243.364 317.074 249.973 308.542 254.547C300.009 259.12 290.479 261.517 280.797 261.523Z" fill="#86BC25"/>
<path d="M409.789 105.64C411.734 107.539 413.268 109.817 414.296 112.333C415.323 114.85 415.822 117.55 415.761 120.267C415.835 122.964 415.346 125.646 414.325 128.144C413.305 130.641 411.776 132.899 409.834 134.773C407.772 136.721 405.338 138.235 402.679 139.224C400.019 140.213 397.188 140.657 394.353 140.531C391.573 140.625 388.801 140.161 386.204 139.164C383.607 138.167 381.237 136.659 379.234 134.728C377.291 132.855 375.76 130.597 374.737 128.1C373.714 125.602 373.222 122.919 373.293 120.222C373.229 117.507 373.723 114.808 374.745 112.292C375.767 109.776 377.295 107.496 379.234 105.594C381.217 103.627 383.58 102.086 386.18 101.065C388.78 100.044 391.561 99.5641 394.353 99.6559C397.198 99.5487 400.035 100.024 402.69 101.053C405.344 102.082 407.76 103.643 409.789 105.64Z" fill="#575756"/>
<path d="M415.731 155.399H373.58V334.432H415.731V155.399Z" fill="#575756"/>
<path d="M579.117 119.527C595.243 131.615 603.307 149.713 603.307 173.82C603.307 199.004 595.188 217.928 578.951 230.591C562.713 243.254 541.074 249.56 514.032 249.51H487.408V333.768H443.957V101.424H511.114C540.272 101.424 562.94 107.458 579.117 119.527ZM546.022 207.169C553.924 200.742 557.875 189.611 557.875 173.774C557.875 146.786 542.182 133.293 510.796 133.293H487.408V216.886H510.796C526.368 216.916 538.11 213.697 546.022 207.23V207.169Z" fill="#575756"/>
<path d="M725.238 153.088L717.996 193.887C712.941 192.597 707.747 191.932 702.53 191.907C692.204 191.907 684.796 196.834 678.159 202.938C671.204 209.33 664.31 219.832 663.993 236.666V334.402H621.857V155.4H658.399L662.36 189.626C666.523 177.114 672.57 167.514 680.502 160.825C688.08 154.252 697.804 150.683 707.837 150.791C713.716 150.734 719.575 151.508 725.238 153.088Z" fill="#575756"/>
<path d="M878.162 238.328C878.162 210.675 871.465 189.117 858.07 173.654C844.675 158.19 825.796 150.458 801.435 150.458C785.41 150.458 771.581 154.488 759.95 162.547C748.066 170.855 738.812 182.391 733.281 195.791C727.123 209.955 724.049 225.917 724.059 243.677C724.059 271.763 731.25 293.926 745.633 310.165C760.016 326.404 780.481 334.518 807.029 334.508C830.735 334.508 852.249 326.721 871.57 311.147L866.899 276.528C862.897 280.322 858.655 283.855 854.199 287.106C847.452 291.863 840.151 295.786 832.459 298.786C825.502 301.338 818.144 302.623 810.733 302.579C798.447 302.579 788.57 298.958 781.101 291.714C773.632 284.471 769.243 272.383 767.933 255.448H877.24C877.83 246.306 878.162 240.519 878.162 238.328ZM836.344 228.173H767.857C768.946 211.491 772.403 199.367 778.228 191.802C784.054 184.236 792.117 180.453 802.418 180.453C825.025 180.453 836.329 195.7 836.329 226.194L836.344 228.173Z" fill="#575756"/>
<path d="M1032.31 174.485C1042.85 190.502 1048.13 212.987 1048.13 241.939C1048.13 259.941 1045.43 275.904 1040.05 289.826C1034.67 303.748 1026.77 314.663 1016.35 322.571C1005.91 330.469 993.567 334.418 979.305 334.418C960.861 334.418 946.246 328.056 935.462 315.333V385.628L893.326 392.428V155.4H930.246L932.544 176.797C938.745 168.534 946.742 161.786 955.932 157.062C964.5 152.716 973.976 150.458 983.584 150.474C1005.54 150.464 1021.78 158.467 1032.31 174.485ZM1003.99 242.272C1003.99 220.996 1001.25 205.638 995.77 196.199C990.287 186.76 982.052 182.045 971.066 182.055C963.976 182.074 957.07 184.315 951.321 188.462C944.892 193.048 939.503 198.939 935.507 205.749V284.084C943.631 296.172 954.279 302.216 967.452 302.216C991.814 302.216 1003.99 282.235 1003.99 242.272Z" fill="#575756"/>
</svg>
